<svg width="20" height="20" viewBox="0 0 20 20" fill="none" xmlns="http://www.w3.org/2000/svg">
<g clip-path="url(#clip0_677_10607)">
<path d="M14.5832 5.4165H14.5915M5.83317 1.6665H14.1665C16.4677 1.6665 18.3332 3.53198 18.3332 5.83317V14.1665C18.3332 16.4677 16.4677 18.3332 14.1665 18.3332H5.83317C3.53198 18.3332 1.6665 16.4677 1.6665 14.1665V5.83317C1.6665 3.53198 3.53198 1.6665 5.83317 1.6665ZM13.3332 9.47484C13.436 10.1684 13.3176 10.8767 12.9946 11.499C12.6717 12.1213 12.1608 12.626 11.5345 12.9412C10.9083 13.2564 10.1985 13.3662 9.50633 13.2548C8.81411 13.1434 8.17464 12.8166 7.67887 12.3208C7.1831 11.825 6.85628 11.1856 6.74489 10.4933C6.63351 9.80113 6.74322 9.09142 7.05844 8.46515C7.37366 7.83888 7.87833 7.32795 8.50066 7.00504C9.12299 6.68212 9.8313 6.56366 10.5248 6.6665C11.2323 6.77141 11.8872 7.10106 12.3929 7.60676C12.8986 8.11246 13.2283 8.7674 13.3332 9.47484Z" stroke="white" stroke-width="1.5" stroke-linecap="round" stroke-linejoin="round"/>
</g>
<defs>
<clipPath id="clip0_677_10607">
<rect width="20" height="20" fill="white"/>
</clipPath>
</defs>
</svg>
